<svg width="1120" height="260" viewBox="0 0 1120 260" fill="none" xmlns="http://www.w3.org/2000/svg">
  <rect width="1120" height="260" rx="8" fill="#00111A"/>
  <mask id="mask0_1_51" style="mask-type:alpha" maskUnits="userSpaceOnUse" x="0" y="0" width="1120" height="260">
    <rect width="1120" height="260" rx="8" fill="#00111A"/>
  </mask>
  <g mask="url(#mask0_1_51)">
    <g filter="url(#filter0_f_1_51)">
      <circle cx="791" cy="190" r="260" fill="#091E26"/>
    </g>
    <g filter="url(#filter1_f_1_51)">
      <circle cx="791" cy="190" r="180" fill="#00131C"/>
    </g>
  </g>
  <g opacity="0.8">
    <path d="M697.804 105.84C697.804 105.84 698.871 95.9539 707.163 97.0207C715.456 98.0874 712.255 111.954 712.255 111.954C712.255 111.954 725.056 110.887 726.122 119.18C727.189 127.472 714.389 127.472 714.389 127.472C714.389 127.472 715.456 138.425 708.23 139.492C701.004 140.558 697.804 130.672 697.804 130.672C697.804 130.672 688.445 133.873 684.178 127.472C679.911 121.071 689.511 116.046 689.511 116.046C689.511 116.046 684.178 106.907 690.578 102.64C696.978 98.3734 697.804 105.84 697.804 105.84Z" fill="#82F3FF"/>
    <path d="M697.804 105.84C697.804 105.84 698.871 95.9539 707.163 97.0207C715.456 98.0874 712.255 111.954 712.255 111.954C712.255 111.954 725.056 110.887 726.122 119.18C727.189 127.472 714.389 127.472 714.389 127.472C714.389 127.472 715.456 138.425 708.23 139.492C701.004 140.558 697.804 130.672 697.804 130.672C697.804 130.672 688.445 133.873 684.178 127.472C679.911 121.071 689.511 116.046 689.511 116.046C689.511 116.046 684.178 106.907 690.578 102.64C696.978 98.3734 697.804 105.84 697.804 105.84Z" stroke="#82F3FF" stroke-width="0.5" stroke-linecap="round" stroke-linejoin="round"/>
    <path d="M697.804 105.84C697.804 105.84 698.871 95.9539 707.163 97.0207C715.456 98.0874 712.255 111.954 712.255 111.954C712.255 111.954 725.056 110.887 726.122 119.18C727.189 127.472 714.389 127.472 714.389 127.472C714.389 127.472 715.456 138.425 708.23 139.492C701.004 140.558 697.804 130.672 697.804 130.672C697.804 130.672 688.445 133.873 684.178 127.472C679.911 121.071 689.511 116.046 689.511 116.046C689.511 116.046 684.178 106.907 690.578 102.64C696.978 98.3734 697.804 105.84 697.804 105.84Z" stroke="#82F3FF" stroke-width="0.5" stroke-linecap="round" stroke-linejoin="round"/>
  </g>
  <g opacity="0.8">
    <path d="M662.804 175.84C662.804 175.84 663.871 165.954 672.163 167.021C680.456 168.087 677.255 181.954 677.255 181.954C677.255 181.954 690.056 180.887 691.122 189.18C692.189 197.472 679.389 197.472 679.389 197.472C679.389 197.472 680.456 208.425 673.23 209.492C666.004 210.558 662.804 200.672 662.804 200.672C662.804 200.672 653.445 203.873 649.178 197.472C644.911 191.071 654.511 186.046 654.511 186.046C654.511 186.046 649.178 176.907 655.578 172.64C661.978 168.373 662.804 175.84 662.804 175.84Z" fill="#82F3FF"/>
    <path d="M662.804 175.84C662.804 175.84 663.871 165.954 672.163 167.021C680.456 168.087 677.255 181.954 677.255 181.954C677.255 181.954 690.056 180.887 691.122 189.18C692.189 197.472 679.389 197.472 679.389 197.472C679.389 197.472 680.456 208.425 673.23 209.492C666.004 210.558 662.804 200.672 662.804 200.672C662.804 200.672 653.445 203.873 649.178 197.472C644.911 191.071 654.511 186.046 654.511 186.046C654.511 186.046 649.178 176.907 655.578 172.64C661.978 168.373 662.804 175.84 662.804 175.84Z" stroke="#82F3FF" stroke-width="0.5" stroke-linecap="round" stroke-linejoin="round"/>
    <path d="M662.804 175.84C662.804 175.84 663.871 165.954 672.163 167.021C680.456 168.087 677.255 181.954 677.255 181.954C677.255 181.954 690.056 180.887 691.122 189.18C692.189 197.472 679.389 197.472 679.389 197.472C679.389 197.472 680.456 208.425 673.23 209.492C666.004 210.558 662.804 200.672 662.804 200.672C662.804 200.672 653.445 203.873 649.178 197.472C644.911 191.071 654.511 186.046 654.511 186.046C654.511 186.046 649.178 176.907 655.578 172.64C661.978 168.373 662.804 175.84 662.804 175.84Z" stroke="#82F3FF" stroke-width="0.5" stroke-linecap="round" stroke-linejoin="round"/>
  </g>
  <g opacity="0.8">
    <path d="M746.804 165.84C746.804 165.84 747.871 155.954 756.163 157.021C764.456 158.087 761.255 171.954 761.255 171.954C761.255 171.954 774.056 170.887 775.122 179.18C776.189 187.472 763.389 187.472 763.389 187.472C763.389 187.472 764.456 198.425 757.23 199.492C750.004 200.558 746.804 190.672 746.804 190.672C746.804 190.672 737.445 193.873 733.178 187.472C728.911 181.071 738.511 176.046 738.511 176.046C738.511 176.046 733.178 166.907 739.578 162.64C745.978 158.373 746.804 165.84 746.804 165.84Z" fill="#82F3FF"/>
    <path d="M746.804 165.84C746.804 165.84 747.871 155.954 756.163 157.021C764.456 158.087 761.255 171.954 761.255 171.954C761.255 171.954 774.056 170.887 775.122 179.18C776.189 187.472 763.389 187.472 763.389 187.472C763.389 187.472 764.456 198.425 757.23 199.492C750.004 200.558 746.804 190.672 746.804 190.672C746.804 190.672 737.445 193.873 733.178 187.472C728.911 181.071 738.511 176.046 738.511 176.046C738.511 176.046 733.178 166.907 739.578 162.64C745.978 158.373 746.804 165.84 746.804 165.84Z" stroke="#82F3FF" stroke-width="0.5" stroke-linecap="round" stroke-linejoin="round"/>
    <path d="M746.804 165.84C746.804 165.84 747.871 155.954 756.163 157.021C764.456 158.087 761.255 171.954 761.255 171.954C761.255 171.954 774.056 170.887 775.122 179.18C776.189 187.472 763.389 187.472 763.389 187.472C763.389 187.472 764.456 198.425 757.23 199.492C750.004 200.558 746.804 190.672 746.804 190.672C746.804 190.672 737.445 193.873 733.178 187.472C728.911 181.071 738.511 176.046 738.511 176.046C738.511 176.046 733.178 166.907 739.578 162.64C745.978 158.373 746.804 165.84 746.804 165.84Z" stroke="#82F3FF" stroke-width="0.5" stroke-linecap="round" stroke-linejoin="round"/>
  </g>
  <path d="M483 113.5C483 175.691 432.691 226 370.5 226C308.309 226 258 175.691 258 113.5C258 51.3091 308.309 1 370.5 1C432.691 1 483 51.3091 483 113.5Z" fill="#000A0F" stroke="#82F3FF"/>
  <g filter="url(#filter2_d_1_51)">
    <path d="M372.16 138.949C370.942 138.949 369.821 138.752 368.797 138.358C367.773 137.964 366.866 137.411 366.076 136.699L368.797 133.978C369.213 134.394 369.688 134.716 370.222 134.945C370.756 135.173 371.337 135.287 371.965 135.287C372.593 135.287 373.174 135.173 373.708 134.945C374.242 134.716 374.717 134.394 375.133 133.978L377.854 136.699C377.064 137.411 376.157 137.964 375.133 138.358C374.109 138.752 373.178 138.949 372.16 138.949ZM372.16 129.375C370.942 129.375 369.821 129.178 368.797 128.784C367.773 128.39 366.866 127.837 366.076 127.125L368.797 124.404C369.213 124.82 369.688 125.142 370.222 125.371C370.756 125.599 371.337 125.713 371.965 125.713C372.593 125.713 373.174 125.599 373.708 125.371C374.242 125.142 374.717 124.82 375.133 124.404L377.854 127.125C377.064 127.837 376.157 128.39 375.133 128.784C374.109 129.178 373.178 129.375 372.16 129.375ZM372.16 119.801C370.942 119.801 369.821 119.604 368.797 119.21C367.773 118.816 366.866 118.263 366.076 117.551L368.797 114.83C369.213 115.246 369.688 115.568 370.222 115.797C370.756 116.025 371.337 116.139 371.965 116.139C372.593 116.139 373.174 116.025 373.708 115.797C374.242 115.568 374.717 115.246 375.133 114.83L377.854 117.551C377.064 118.263 376.157 118.816 375.133 119.21C374.109 119.604 373.178 119.801 372.16 119.801ZM372.16 110.227C370.942 110.227 369.821 110.03 368.797 109.636C367.773 109.242 366.866 108.689 366.076 107.977L368.797 105.256C369.213 105.672 369.688 105.994 370.222 106.223C370.756 106.451 371.337 106.565 371.965 106.565C372.593 106.565 373.174 106.451 373.708 106.223C374.242 105.994 374.717 105.672 375.133 105.256L377.854 107.977C377.064 108.689 376.157 109.242 375.133 109.636C374.109 110.03 373.178 110.227 372.16 110.227ZM372.16 100.653C370.942 100.653 369.821 100.456 368.797 100.062C367.773 99.6681 366.866 99.1151 366.076 98.4031L368.797 95.6821C369.213 96.0981 369.688 96.4201 370.222 96.6491C370.756 96.8771 371.337 96.9911 371.965 96.9911C372.593 96.9911 373.174 96.8771 373.708 96.6491C374.242 96.4201 374.717 96.0981 375.133 95.6821L377.854 98.4031C377.064 99.1151 376.157 99.6681 375.133 100.062C374.109 100.456 373.178 100.653 372.16 100.653ZM372.16 91.0791C370.942 91.0791 369.821 90.8821 368.797 90.4881C367.773 90.0941 366.866 89.5411 366.076 88.8291L368.797 86.1081C369.213 86.5241 369.688 86.8461 370.222 87.0751C370.756 87.3031 371.337 87.4171 371.965 87.4171C372.593 87.4171 373.174 87.3031 373.708 87.0751C374.242 86.8461 374.717 86.5241 375.133 86.1081L377.854 88.8291C377.064 89.5411 376.157 90.0941 375.133 90.4881C374.109 90.8821 373.178 91.0791 372.16 91.0791Z" fill="#82F3FF"/>
  </g>
  <g filter="url(#filter3_d_1_51)">
    <path d="M372.16 138.949C370.942 138.949 369.821 138.752 368.797 138.358C367.773 137.964 366.866 137.411 366.076 136.699L368.797 133.978C369.213 134.394 369.688 134.716 370.222 134.945C370.756 135.173 371.337 135.287 371.965 135.287C372.593 135.287 373.174 135.173 373.708 134.945C374.242 134.716 374.717 134.394 375.133 133.978L377.854 136.699C377.064 137.411 376.157 137.964 375.133 138.358C374.109 138.752 373.178 138.949 372.16 138.949ZM372.16 129.375C370.942 129.375 369.821 129.178 368.797 128.784C367.773 128.39 366.866 127.837 366.076 127.125L368.797 124.404C369.213 124.82 369.688 125.142 370.222 125.371C370.756 125.599 371.337 125.713 371.965 125.713C372.593 125.713 373.174 125.599 373.708 125.371C374.242 125.142 374.717 124.82 375.133 124.404L377.854 127.125C377.064 127.837 376.157 128.39 375.133 128.784C374.109 129.178 373.178 129.375 372.16 129.375ZM372.16 119.801C370.942 119.801 369.821 119.604 368.797 119.21C367.773 118.816 366.866 118.263 366.076 117.551L368.797 114.83C369.213 115.246 369.688 115.568 370.222 115.797C370.756 116.025 371.337 116.139 371.965 116.139C372.593 116.139 373.174 116.025 373.708 115.797C374.242 115.568 374.717 115.246 375.133 114.83L377.854 117.551C377.064 118.263 376.157 118.816 375.133 119.21C374.109 119.604 373.178 119.801 372.16 119.801ZM372.16 110.227C370.942 110.227 369.821 110.03 368.797 109.636C367.773 109.242 366.866 108.689 366.076 107.977L368.797 105.256C369.213 105.672 369.688 105.994 370.222 106.223C370.756 106.451 371.337 106.565 371.965 106.565C372.593 106.565 373.174 106.451 373.708 106.223C374.242 105.994 374.717 105.672 375.133 105.256L377.854 107.977C377.064 108.689 376.157 109.242 375.133 109.636C374.109 110.03 373.178 110.227 372.16 110.227ZM372.16 100.653C370.942 100.653 369.821 100.456 368.797 100.062C367.773 99.6681 366.866 99.1151 366.076 98.4031L368.797 95.6821C369.213 96.0981 369.688 96.4201 370.222 96.6491C370.756 96.8771 371.337 96.9911 371.965 96.9911C372.593 96.9911 373.174 96.8771 373.708 96.6491C374.242 96.4201 374.717 96.0981 375.133 95.6821L377.854 98.4031C377.064 99.1151 376.157 99.6681 375.133 100.062C374.109 100.456 373.178 100.653 372.16 100.653ZM372.16 91.0791C370.942 91.0791 369.821 90.8821 368.797 90.4881C367.773 90.0941 366.866 89.5411 366.076 88.8291L368.797 86.1081C369.213 86.5241 369.688 86.8461 370.222 87.0751C370.756 87.3031 371.337 87.4171 371.965 87.4171C372.593 87.4171 373.174 87.3031 373.708 87.0751C374.242 86.8461 374.717 86.5241 375.133 86.1081L377.854 88.8291C377.064 89.5411 376.157 90.0941 375.133 90.4881C374.109 90.8821 373.178 91.0791 372.16 91.0791Z" fill="#82F3FF"/>
  </g>
  <path d="M372.16 138.949C370.942 138.949 369.821 138.752 368.797 138.358C367.773 137.964 366.866 137.411 366.076 136.699L368.797 133.978C369.213 134.394 369.688 134.716 370.222 134.945C370.756 135.173 371.337 135.287 371.965 135.287C372.593 135.287 373.174 135.173 373.708 134.945C374.242 134.716 374.717 134.394 375.133 133.978L377.854 136.699C377.064 137.411 376.157 137.964 375.133 138.358C374.109 138.752 373.178 138.949 372.16 138.949ZM372.16 129.375C370.942 129.375 369.821 129.178 368.797 128.784C367.773 128.39 366.866 127.837 366.076 127.125L368.797 124.404C369.213 124.82 369.688 125.142 370.222 125.371C370.756 125.599 371.337 125.713 371.965 125.713C372.593 125.713 373.174 125.599 373.708 125.371C374.242 125.142 374.717 124.82 375.133 124.404L377.854 127.125C377.064 127.837 376.157 128.39 375.133 128.784C374.109 129.178 373.178 129.375 372.16 129.375ZM372.16 119.801C370.942 119.801 369.821 119.604 368.797 119.21C367.773 118.816 366.866 118.263 366.076 117.551L368.797 114.83C369.213 115.246 369.688 115.568 370.222 115.797C370.756 116.025 371.337 116.139 371.965 116.139C372.593 116.139 373.174 116.025 373.708 115.797C374.242 115.568 374.717 115.246 375.133 114.83L377.854 117.551C377.064 118.263 376.157 118.816 375.133 119.21C374.109 119.604 373.178 119.801 372.16 119.801ZM372.16 110.227C370.942 110.227 369.821 110.03 368.797 109.636C367.773 109.242 366.866 108.689 366.076 107.977L368.797 105.256C369.213 105.672 369.688 105.994 370.222 106.223C370.756 106.451 371.337 106.565 371.965 106.565C372.593 106.565 373.174 106.451 373.708 106.223C374.242 105.994 374.717 105.672 375.133 105.256L377.854 107.977C377.064 108.689 376.157 109.242 375.133 109.636C374.109 110.03 373.178 110.227 372.16 110.227ZM372.16 100.653C370.942 100.653 369.821 100.456 368.797 100.062C367.773 99.6681 366.866 99.1151 366.076 98.4031L368.797 95.6821C369.213 96.0981 369.688 96.4201 370.222 96.6491C370.756 96.8771 371.337 96.9911 371.965 96.9911C372.593 96.9911 373.174 96.8771 373.708 96.6491C374.242 96.4201 374.717 96.0981 375.133 95.6821L377.854 98.4031C377.064 99.1151 376.157 99.6681 375.133 100.062C374.109 100.456 373.178 100.653 372.16 100.653ZM372.16 91.0791C370.942 91.0791 369.821 90.8821 368.797 90.4881C367.773 90.0941 366.866 89.5411 366.076 88.8291L368.797 86.1081C369.213 86.5241 369.688 86.8461 370.222 87.0751C370.756 87.3031 371.337 87.4171 371.965 87.4171C372.593 87.4171 373.174 87.3031 373.708 87.0751C374.242 86.8461 374.717 86.5241 375.133 86.1081L377.854 88.8291C377.064 89.5411 376.157 90.0941 375.133 90.4881C374.109 90.8821 373.178 91.0791 372.16 91.0791Z" fill="#82F3FF"/>
  <defs>
    <filter id="filter0_f_1_51" x="331" y="-270" width="920" height="920" filterUnits="userSpaceOnUse" color-interpolation-filters="sRGB">
      <feFlood flood-opacity="0" result="BackgroundImageFix"/>
      <feBlend mode="normal" in="SourceGraphic" in2="BackgroundImageFix" result="shape"/>
      <feGaussianBlur stdDeviation="100" result="effect1_foregroundBlur_1_51"/>
    </filter>
    <filter id="filter1_f_1_51" x="411" y="-190" width="760" height="760" filterUnits="userSpaceOnUse" color-interpolation-filters="sRGB">
      <feFlood flood-opacity="0" result="BackgroundImageFix"/>
      <feBlend mode="normal" in="SourceGraphic" in2="BackgroundImageFix" result="shape"/>
      <feGaussianBlur stdDeviation="100" result="effect1_foregroundBlur_1_51"/>
    </filter>
    <filter id="filter2_d_1_51" x="362.076" y="86.1081" width="19.7781" height="60.8409" filterUnits="userSpaceOnUse" color-interpolation-filters="sRGB">
      <feFlood flood-opacity="0" result="BackgroundImageFix"/>
      <feColorMatrix in="SourceAlpha" type="matrix" values="0 0 0 0 0 0 0 0 0 0 0 0 0 0 0 0 0 0 127 0" result="hardAlpha"/>
      <feOffset dy="4"/>
      <feGaussianBlur stdDeviation="2"/>
      <feComposite in2="hardAlpha" operator="out"/>
      <feColorMatrix type="matrix" values="0 0 0 0 0 0 0 0 0 0 0 0 0 0 0 0 0 0 0.25 0"/>
      <feBlend mode="normal" in2="BackgroundImageFix" result="effect1_dropShadow_1_51"/>
      <feBlend mode="normal" in="SourceGraphic" in2="effect1_dropShadow_1_51" result="shape"/>
    </filter>
    <filter id="filter3_d_1_51" x="362.076" y="86.1081" width="19.7781" height="60.8409" filterUnits="userSpaceOnUse" color-interpolation-filters="sRGB">
      <feFlood flood-opacity="0" result="BackgroundImageFix"/>
      <feColorMatrix in="SourceAlpha" type="matrix" values="0 0 0 0 0 0 0 0 0 0 0 0 0 0 0 0 0 0 127 0" result="hardAlpha"/>
      <feOffset dy="4"/>
      <feGaussianBlur stdDeviation="2"/>
      <feComposite in2="hardAlpha" operator="out"/>
      <feColorMatrix type="matrix" values="0 0 0 0 0 0 0 0 0 0 0 0 0 0 0 0 0 0 0.25 0"/>
      <feBlend mode="normal" in2="BackgroundImageFix" result="effect1_dropShadow_1_51"/>
      <feBlend mode="normal" in="SourceGraphic" in2="effect1_dropShadow_1_51" result="shape"/>
    </filter>
  </defs>
</svg>